# xmcd
#
# Track frame offsets: 
#        150
#        17384
#        31409
#        46549
#        60140
#        74224
#        90462
#        105343
#        118879
#        134993
#        147659
#        164030
#        175584
#        189513
#        204382
#        216561
#        230130
#        243355
#        257321
#        273932
#        290632
#        303725
#        316888
#
# Disc length: 4468 seconds
#
# Revision: 0
# Processed by: cddbd v1.5.2PL0 Copyright (c) Steve Scherf et al.
# Submitted via: ExactAudioCopy v1.1
#
DISCID=59117217
DTITLE=Various Artist - Hit Music - Best Of 2017 - CD 2
DYEAR=2017
DGENRE=Top 40
TTITLE0=Luis Fonsi Feat. Daddy Yankee - Despacito
TTITLE1=CNCO and Little Mix - Reggaetón Lento
TTITLE2=Axwell Λ Ingrosso - More Than You Know
TTITLE3=Marshmello Feat. Khalid - Silence
TTITLE4=Henri PFR and Romeo Blanco Feat. Veronica - In The Mood
TTITLE5=Boef - Habiba
TTITLE6=Shawn Mendes - There's Nothing Holdin' Me Back
TTITLE7=Jonas Blue Feat. William Singe - Mama
TTITLE8=Camila Cabello Feat. Young Thug - Havana
TTITLE9=Martin Solveig Feat. Alma - All Stars
TTITLE10=Kygo and Selena Gomez - It Ain't Me
TTITLE11=Kraantje Pappie - Pompen
TTITLE12=Disciples - On My Mind
TTITLE13=Maroon 5 Feat. SZA - What Lovers Do
TTITLE14=Portugal. The Man - Feel It Still
TTITLE15=Regi - Where Did You Go (Summer Love)
TTITLE16=Van Echelpoel - Ziet Em Duun
TTITLE17=J Balvin and Willy William - Mi Gente
TTITLE18=Martin Garrix and Dua Lipa - Scared To Be Lonely
TTITLE19=Starley - Call On Me (Ryan Riback Remix)
TTITLE20=Blanche - City Lights
TTITLE21=Julia Michaels - Issues
TTITLE22=Clouseau - Ik Wil Je Terug
EXTD=
EXTT0=
EXTT1=
EXTT2=
EXTT3=
EXTT4=
EXTT5=
EXTT6=
EXTT7=
EXTT8=
EXTT9=
EXTT10=
EXTT11=
EXTT12=
EXTT13=
EXTT14=
EXTT15=
EXTT16=
EXTT17=
EXTT18=
EXTT19=
EXTT20=
EXTT21=
EXTT22=
PLAYORDER=
